<svg width="20" height="20" viewBox="0 0 20 20" fill="none" xmlns="http://www.w3.org/2000/svg">
<g clip-path="url(#clip0_535_1628)">
<g clip-path="url(#clip1_535_1628)">
<path d="M2.91007 6.72086L3.98173 15.8334H16.0184L17.0901 6.72086L13.7484 8.94836L10.0001 3.70086L6.25173 8.94836L2.91007 6.72086ZM2.33423 4.33336L5.8334 6.6667L9.32173 1.78336C9.39882 1.67534 9.50059 1.58728 9.61858 1.52653C9.73657 1.46578 9.86736 1.43408 10.0001 1.43408C10.1328 1.43408 10.2636 1.46578 10.3816 1.52653C10.4995 1.58728 10.6013 1.67534 10.6784 1.78336L14.1667 6.6667L17.6667 4.33336C17.7992 4.24523 17.9541 4.19687 18.1132 4.19397C18.2723 4.19108 18.4288 4.23379 18.5644 4.31705C18.7 4.4003 18.8089 4.52063 18.8783 4.66381C18.9476 4.80699 18.9746 4.96703 18.9559 5.12503L17.5867 16.7642C17.5629 16.9669 17.4654 17.1538 17.3129 17.2894C17.1603 17.4251 16.9633 17.5 16.7592 17.5H3.2409C3.03679 17.5 2.83979 17.4251 2.68726 17.2894C2.53473 17.1538 2.43728 16.9669 2.4134 16.7642L1.04423 5.1242C1.02573 4.96626 1.0528 4.80634 1.12225 4.66329C1.1917 4.52025 1.30062 4.40006 1.43616 4.31691C1.5717 4.23377 1.7282 4.19113 1.88718 4.19405C2.04617 4.19696 2.201 4.2453 2.3334 4.33336H2.33423ZM10.0001 12.5C9.55804 12.5 9.13412 12.3244 8.82156 12.0119C8.509 11.6993 8.3334 11.2754 8.3334 10.8334C8.3334 10.3913 8.509 9.96741 8.82156 9.65485C9.13412 9.34229 9.55804 9.16669 10.0001 9.16669C10.4421 9.16669 10.866 9.34229 11.1786 9.65485C11.4911 9.96741 11.6667 10.3913 11.6667 10.8334C11.6667 11.2754 11.4911 11.6993 11.1786 12.0119C10.866 12.3244 10.4421 12.5 10.0001 12.5Z" fill="#000000"/>
</g>
</g>
<defs>
<clipPath id="clip0_535_1628">
<rect width="20" height="20" fill="white"/>
</clipPath>
<clipPath id="clip1_535_1628">
<rect width="20" height="20" fill="white"/>
</clipPath>
</defs>
</svg>
